<svg width="720" height="280" viewBox="0 0 720 280" fill="none" xmlns="http://www.w3.org/2000/svg" role="img" aria-label="Before and after loop">
  <rect width="720" height="280" rx="28" fill="#F8F4EC"/>
  <rect x="40" y="52" width="228" height="176" rx="24" fill="#FFFFFF" stroke="#E3D8C8" stroke-width="3"/>
  <rect x="452" y="52" width="228" height="176" rx="24" fill="#FFFFFF" stroke="#E3D8C8" stroke-width="3"/>
  <path d="M297 122C321 94 361 83 398 96C419 103 436 116 449 132" stroke="#2F6F73" stroke-width="10" stroke-linecap="round"/>
  <path d="M445 100L452 134L419 128" stroke="#2F6F73" stroke-width="10" stroke-linecap="round" stroke-linejoin="round"/>
  <path d="M423 170C397 197 356 206 320 191C301 183 286 171 274 156" stroke="#C85B45" stroke-width="10" stroke-linecap="round"/>
  <path d="M278 188L272 154L305 162" stroke="#C85B45" stroke-width="10" stroke-linecap="round" stroke-linejoin="round"/>
  <circle cx="154" cy="124" r="38" fill="#C85B45"/>
  <path d="M126 93L112 62L151 83" fill="#C85B45"/>
  <path d="M181 93L195 62L156 83" fill="#C85B45"/>
  <circle cx="140" cy="119" r="5" fill="#2B2926"/>
  <circle cx="168" cy="119" r="5" fill="#2B2926"/>
  <path d="M143 144C151 151 160 151 168 144" stroke="#2B2926" stroke-width="5" stroke-linecap="round"/>
  <rect x="92" y="174" width="124" height="12" rx="6" fill="#E8DCCB"/>
  <rect x="92" y="194" width="84" height="12" rx="6" fill="#E8DCCB"/>
  <circle cx="566" cy="124" r="38" fill="#2F6F73"/>
  <path d="M538 93L524 62L563 83" fill="#2F6F73"/>
  <path d="M593 93L607 62L568 83" fill="#2F6F73"/>
  <path d="M548 118C555 113 561 113 568 118" stroke="#2B2926" stroke-width="5" stroke-linecap="round"/>
  <path d="M574 118C581 113 587 113 594 118" stroke="#2B2926" stroke-width="5" stroke-linecap="round"/>
  <path d="M553 146C562 154 573 154 582 146" stroke="#2B2926" stroke-width="5" stroke-linecap="round"/>
  <rect x="504" y="174" width="124" height="12" rx="6" fill="#E8DCCB"/>
  <rect x="504" y="194" width="84" height="12" rx="6" fill="#E8DCCB"/>
</svg>
